<?xml version="1.0" standalone="no"?><!DOCTYPE svg PUBLIC "-//W3C//DTD SVG 1.1//EN" "http://www.w3.org/Graphics/SVG/1.1/DTD/svg11.dtd"><svg t="1499770042000" class="icon" style="" viewBox="0 0 1024 1024" version="1.1" xmlns="http://www.w3.org/2000/svg" p-id="2284" xmlns:xlink="http://www.w3.org/1999/xlink" width="200" height="200"><defs><style type="text/css"></style></defs><path d="M918.872 456.702v135.46h-94.727q-12.315 52.1-40.733 97.569l67.256 67.256-95.674 95.674-67.256-68.203q-45.469 29.365-97.569 40.733v95.674h-134.512v-95.674q-52.1-11.367-97.569-40.733l-67.256 68.203-95.674-95.674 67.256-67.256q-28.418-45.469-40.733-97.569h-94.727v-135.46h94.727q11.367-52.1 39.785-97.569l-66.309-67.256 95.674-95.674 66.309 67.256q45.469-29.365 98.516-40.733v-94.727h134.512v94.727q53.047 11.367 98.516 40.733l66.309-67.256 95.674 95.674-66.309 67.256q28.418 45.469 39.785 97.569h94.727zM521.018 313.664q-86.202 0-147.301 61.099t-61.099 147.774 61.099 147.774 147.774 61.099 147.774-61.099 61.099-147.774-61.099-147.774-148.248-61.099z" p-id="2285" fill="#1296DB"></path></svg>