<?xml version="1.0" standalone="no"?><!DOCTYPE svg PUBLIC "-//W3C//DTD SVG 1.1//EN" "http://www.w3.org/Graphics/SVG/1.1/DTD/svg11.dtd"><svg t="1499770766708" class="icon" style="" viewBox="0 0 1024 1024" version="1.1" xmlns="http://www.w3.org/2000/svg" p-id="2798" xmlns:xlink="http://www.w3.org/1999/xlink" width="200" height="200"><defs><style type="text/css"></style></defs><path d="M512.9728 1015.71072C235.32544 1015.71072 10.24 790.62528 10.24 512.96768 10.24 235.32544 235.32544 10.24 512.9728 10.24s502.7328 225.08544 502.7328 502.72768c0.00512 277.6576-225.08032 502.74304-502.7328 502.74304z m-285.32224-455.15264h-0.01024l0.01024 0.60416v-0.60416z m192.49152-264.832c-14.4896-14.48448-34.85184-22.92224-55.33696-22.92224-20.49024 0-40.85248 8.44288-55.34208 22.92224-14.49472 14.4896-22.92736 34.85696-22.92736 55.3472s8.42752 40.84736 22.92736 55.33696c14.48448 14.4896 34.85184 22.92224 55.34208 22.92224 20.48512 0 40.85248-8.43264 55.33696-22.92224 14.49472-14.4896 22.92224-34.84672 22.92224-55.33696s-8.42752-40.8576-22.92224-55.3472z m306.80064 0c-14.4896-14.48448-34.85184-22.92224-55.33184-22.92224-20.49536 0-40.86272 8.44288-55.3472 22.92224-14.49472 14.4896-22.92224 34.85696-22.92224 55.3472s8.42752 40.84736 22.92224 55.33696c14.47936 14.4896 34.85184 22.92224 55.3472 22.92224 20.48 0 40.84736-8.43264 55.33184-22.92224 14.49472-14.4896 22.93248-34.84672 22.93248-55.33696s-8.43264-40.8576-22.93248-55.3472z m44.18048 264.8064c-0.12288 0-0.23552 0.03072-0.34816 0.03072H255.17568c-0.11776 0-0.22528-0.03072-0.34816-0.03072a27.18208 27.18208 0 0 0-27.17696 27.17696c0 4.13184 0.99328 8.00256 2.64704 11.50464 19.70176 147.25632 151.59296 221.4144 282.6752 219.29984v0.20992c131.09248 2.11456 262.99392-72.12032 282.68544-219.52a27.0336 27.0336 0 0 0 2.6368-11.4944 27.17184 27.17184 0 0 0-27.17184-27.17696z m27.17184 0.0256v0.60416c0-0.19968 0.01536-0.39424 0.01536-0.60416h-0.01536z" fill="#FFCD00" p-id="2799"></path></svg>