<?xml version="1.0" standalone="no"?><!DOCTYPE svg PUBLIC "-//W3C//DTD SVG 1.1//EN" "http://www.w3.org/Graphics/SVG/1.1/DTD/svg11.dtd"><svg t="1499770795062" class="icon" style="" viewBox="0 0 1024 1024" version="1.1" xmlns="http://www.w3.org/2000/svg" p-id="3022" xmlns:xlink="http://www.w3.org/1999/xlink" width="200" height="200"><defs><style type="text/css"></style></defs><path d="M959.418123 288.290939c0-74.131371-60.09468-134.225027-134.225027-134.225027L198.806905 154.065911c-74.131371 0-134.225027 60.09468-134.225027 134.225027L64.581877 735.709061c0 74.131371 60.09468 134.225027 134.225027 134.225027l626.385167 0c74.131371 0 134.225027-60.09468 134.225027-134.225027l0-89.484034L735.709061 646.225027c-74.131371 0-134.225027-60.09468-134.225027-134.225027s60.09468-134.225027 134.225027-134.225027l223.709061 0L959.418123 288.290939z" p-id="3023" fill="#1296db"></path><path d="M735.709061 512.00307m-67.112514 0a65.584 65.584 0 1 0 134.225027 0 65.584 65.584 0 1 0-134.225027 0Z" p-id="3024" fill="#1296db"></path></svg>